<svg width="10" height="10" viewBox="0 0 10 10" fill="none" xmlns="http://www.w3.org/2000/svg">
<path d="M5.4375 0.5625V4.3125H9.1875C9.49219 4.3125 9.75 4.57031 9.75 4.875C9.75 5.20312 9.49219 5.4375 9.1875 5.4375H5.4375V9.1875C5.4375 9.51562 5.17969 9.75 4.875 9.75C4.54688 9.75 4.3125 9.51562 4.3125 9.1875V5.4375H0.5625C0.234375 5.4375 0 5.20312 0 4.875C0 4.57031 0.234375 4.3125 0.5625 4.3125H4.3125V0.5625C4.3125 0.257812 4.54688 0 4.875 0C5.17969 0 5.4375 0.257812 5.4375 0.5625Z" fill="#FF0000"/>
</svg>
