<svg width="289" height="136" viewBox="0 0 289 136" fill="none" xmlns="http://www.w3.org/2000/svg">
<g filter="url(#filter0_d_1647_15966)">
<path d="M21.4365 43.682H15.8289V29.1914C15.8289 29.0103 15.8289 28.811 15.8289 28.6118C15.8289 25.1199 16.5531 21.6622 17.9602 18.4362C19.3674 15.2101 21.4298 12.2788 24.0299 9.80969C26.6299 7.34057 29.7166 5.38195 33.1137 4.04566C36.5109 2.70938 40.1519 2.02161 43.8289 2.02161C47.5059 2.02161 51.1469 2.70938 54.544 4.04566C57.9411 5.38195 61.0278 7.34057 63.6279 9.80969C66.2279 12.2788 68.2904 15.2101 69.6975 18.4362C71.1046 21.6622 71.8289 25.1199 71.8289 28.6118C71.8289 28.811 71.8289 29.0103 71.8289 29.1914V50.0216L66.2975 47.3046V29.1914C65.8921 23.2881 63.3529 17.7638 59.191 13.7308C55.0291 9.69779 49.5536 7.45557 43.867 7.45557C38.1804 7.45557 32.705 9.69779 28.5431 13.7308C24.3812 17.7638 21.8419 23.2881 21.4365 29.1914V43.682Z" fill="url(#paint0_linear_1647_15966)"/>
<path d="M80.9376 67.5477C77.5044 62.1566 72.8328 57.6545 67.3078 54.4124C61.1072 50.7603 54.0313 48.8402 46.8258 48.8544H4V116.106L32.8609 116.399V127.833H46.8258C54.0424 127.844 61.1295 127.167 67.3465 123.521C73.5636 119.875 78.6824 114.635 82.1682 108.348C85.6539 102.061 87.3787 94.9574 87.1622 87.7803C86.9457 80.6031 84.796 73.6156 80.9376 67.5477ZM73.4896 111.029C68.2267 117.275 60.9234 121.478 52.8587 122.905H37.5159V116.106H46.8258C51.3749 116.129 55.8568 115.014 59.8598 112.863C60.7943 112.365 61.696 111.808 62.5597 111.196C64.8546 109.601 66.8893 107.664 68.5926 105.453C68.9836 104.953 69.356 104.434 69.6911 103.915C70.6306 102.534 71.429 101.063 72.0745 99.5244C72.692 98.0824 73.178 96.5881 73.5268 95.0595C74.4702 91.019 74.4702 86.817 73.5268 82.7765C73.1429 81.0621 72.5813 79.3919 71.851 77.7928C71.1679 76.2467 70.3255 74.7753 69.3373 73.402C69.1121 73.0463 68.8632 72.7059 68.5926 72.3831C66.6891 69.911 64.3634 67.7913 61.7218 66.1211C57.2967 63.2335 52.1177 61.7005 46.8258 61.7118H15.805L16.0096 104.5H41.7949C42.7638 104.502 50.8101 104.331 52.1609 103.874C54.9539 102.93 55.9335 102.274 57.9889 100.674L58.5475 100.241C60.7095 98.4044 62.1878 96.0568 62.7949 93.4964C63.402 90.936 63.1106 88.2783 61.9575 85.8605C60.8044 83.4427 58.8418 81.3739 56.3185 79.9165C53.7953 78.4591 50.8252 77.6788 47.7852 77.6747H35.4424V99.4874L20.7579 99.5429V66.1952H46.8258C49.9723 66.1963 53.0847 66.8435 55.9682 68.0963C58.8517 69.3492 61.4443 71.1806 63.5838 73.4762C64.8511 74.7772 65.9461 76.2341 66.8423 77.8114C67.5275 78.9884 68.095 80.2294 68.5367 81.5167C70.1753 86.2845 70.1753 91.4589 68.5367 96.2267C68.1613 97.3525 67.6878 98.4435 67.1216 99.4874C66.3012 101.069 65.2881 102.543 64.1051 103.878C61.955 106.337 59.3002 108.309 56.3195 109.661C53.3388 111.013 50.1016 111.713 46.8258 111.715H8.31982V54.4124H46.8258C54.5542 54.397 62.0633 56.968 68.1457 61.7118C70.0965 63.2118 71.8761 64.9203 73.4524 66.8066C78.6624 73.0086 81.5168 80.8348 81.5168 88.918C81.5168 97.0012 78.6624 104.827 73.4524 111.029H73.4896ZM39.9908 99.5429V82H47.5059C50.1786 81.9999 52.7627 82.2911 54.7894 83.7887C56.8162 85.2863 57.588 86.8104 57.9889 89.0817C58.3899 91.3529 57.7135 94.053 56.2949 96C54.8763 97.947 52.8473 99.5 50.2949 99.5C49.223 99.5 48.6301 99.4874 47.5059 99.4874L39.9908 99.5429Z" fill="url(#paint1_linear_1647_15966)"/>
</g>
<g filter="url(#filter1_d_1647_15966)">
<path fill-rule="evenodd" clip-rule="evenodd" d="M119.634 73.0792C121.346 73.0792 122.78 73.3697 123.934 73.9514C125.089 74.52 126.018 75.2344 126.721 76.0939C127.438 76.9401 127.988 77.7732 128.373 78.5929H128.692V73.4759H137.112V104.238C137.112 106.83 136.475 108.998 135.201 110.743C133.927 112.489 132.162 113.798 129.906 114.671C127.663 115.557 125.082 116 122.162 116C119.415 116 117.06 115.623 115.096 114.869C113.145 114.129 111.592 113.117 110.437 111.835C109.283 110.552 108.533 109.111 108.188 107.511L116.031 106.46C116.27 107.068 116.648 107.637 117.166 108.166C117.683 108.694 118.367 109.117 119.216 109.434C120.079 109.765 121.127 109.931 122.361 109.931C124.206 109.931 125.725 109.481 126.92 108.582C128.127 107.696 128.731 106.208 128.731 104.119V98.546H128.373C128.001 99.3921 127.444 100.192 126.701 100.946C125.958 101.699 125.002 102.314 123.834 102.79C122.666 103.266 121.273 103.504 119.654 103.504C117.358 103.504 115.268 102.976 113.383 101.918C111.512 100.847 110.019 99.2136 108.904 97.0186C107.803 94.8105 107.252 92.0204 107.252 88.6486C107.252 85.1976 107.816 82.3147 108.944 80.0007C110.072 77.6869 111.572 75.9546 113.443 74.8043C115.327 73.654 117.391 73.0793 119.634 73.0792ZM122.341 79.8024C120.948 79.8024 119.773 80.1794 118.818 80.933C117.862 81.6735 117.139 82.705 116.648 84.0272C116.157 85.3494 115.912 86.8771 115.912 88.6092C115.912 90.3676 116.157 91.8881 116.648 93.1706C117.152 94.4398 117.876 95.425 118.818 96.1258C119.773 96.8133 120.948 97.1575 122.341 97.1576C123.708 97.1576 124.863 96.8201 125.805 96.1458C126.76 95.4583 127.491 94.4799 127.995 93.2106C128.512 91.9281 128.771 90.3941 128.771 88.6092C128.771 86.8241 128.519 85.2768 128.015 83.9677C127.511 82.6455 126.781 81.6209 125.825 80.8936C124.87 80.1664 123.708 79.8024 122.341 79.8024Z" fill="#006FBB"/>
<path fill-rule="evenodd" clip-rule="evenodd" d="M119.634 73.0792C121.346 73.0792 122.78 73.3697 123.934 73.9514C125.089 74.52 126.018 75.2344 126.721 76.0939C127.438 76.9401 127.988 77.7732 128.373 78.5929H128.692V73.4759H137.112V104.238C137.112 106.83 136.475 108.998 135.201 110.743C133.927 112.489 132.162 113.798 129.906 114.671C127.663 115.557 125.082 116 122.162 116C119.415 116 117.06 115.623 115.096 114.869C113.145 114.129 111.592 113.117 110.437 111.835C109.283 110.552 108.533 109.111 108.188 107.511L116.031 106.46C116.27 107.068 116.648 107.637 117.166 108.166C117.683 108.694 118.367 109.117 119.216 109.434C120.079 109.765 121.127 109.931 122.361 109.931C124.206 109.931 125.725 109.481 126.92 108.582C128.127 107.696 128.731 106.208 128.731 104.119V98.546H128.373C128.001 99.3921 127.444 100.192 126.701 100.946C125.958 101.699 125.002 102.314 123.834 102.79C122.666 103.266 121.273 103.504 119.654 103.504C117.358 103.504 115.268 102.976 113.383 101.918C111.512 100.847 110.019 99.2136 108.904 97.0186C107.803 94.8105 107.252 92.0204 107.252 88.6486C107.252 85.1976 107.816 82.3147 108.944 80.0007C110.072 77.6869 111.572 75.9546 113.443 74.8043C115.327 73.654 117.391 73.0793 119.634 73.0792ZM122.341 79.8024C120.948 79.8024 119.773 80.1794 118.818 80.933C117.862 81.6735 117.139 82.705 116.648 84.0272C116.157 85.3494 115.912 86.8771 115.912 88.6092C115.912 90.3676 116.157 91.8881 116.648 93.1706C117.152 94.4398 117.876 95.425 118.818 96.1258C119.773 96.8133 120.948 97.1575 122.341 97.1576C123.708 97.1576 124.863 96.8201 125.805 96.1458C126.76 95.4583 127.491 94.4799 127.995 93.2106C128.512 91.9281 128.771 90.3941 128.771 88.6092C128.771 86.8241 128.519 85.2768 128.015 83.9677C127.511 82.6455 126.781 81.6209 125.825 80.8936C124.87 80.1664 123.708 79.8024 122.341 79.8024Z" fill="url(#paint2_linear_1647_15966)"/>
<path d="M101.594 103.941H93.1132V73.4759H101.594V103.941Z" fill="#006FBB"/>
<path d="M101.594 103.941H93.1132V73.4759H101.594V103.941Z" fill="url(#paint3_linear_1647_15966)"/>
<path d="M152.341 103.941H143.861V73.4759H152.341V103.941Z" fill="#006FBB"/>
<path d="M152.341 103.941H143.861V73.4759H152.341V103.941Z" fill="url(#paint4_linear_1647_15966)"/>
<path d="M249.412 73.571C253.221 73.571 256.218 74.3326 258.404 75.8548C260.603 77.3771 261.886 79.4501 262.252 82.0737L254.595 82.5192C254.464 81.9005 254.183 81.3436 253.751 80.8486C253.319 80.3412 252.75 79.9386 252.043 79.6416C251.349 79.3322 250.518 79.1773 249.549 79.1773C248.254 79.1774 247.161 79.4373 246.271 79.957C245.381 80.4644 244.935 81.1454 244.935 81.9992C244.936 82.6799 245.224 83.2553 245.8 83.7256C246.376 84.1958 247.364 84.5735 248.764 84.8581L254.222 85.8974C257.154 86.4667 259.34 87.3826 260.779 88.6449C262.219 89.9072 262.939 91.566 262.939 93.6204C262.939 95.4891 262.356 97.1289 261.191 98.5397C260.04 99.9504 258.456 101.052 256.441 101.844C254.438 102.624 252.128 103.014 249.51 103.014C245.518 103.013 242.337 102.228 239.968 100.656C237.613 99.0718 236.232 96.918 235.826 94.1955L244.052 93.7875C244.301 94.9383 244.903 95.8172 245.858 96.4236C246.814 97.0176 248.038 97.3146 249.53 97.3146C250.995 97.3146 252.174 97.0483 253.064 96.5162C253.967 95.9717 254.425 95.2721 254.438 94.4182C254.424 93.7005 254.104 93.1128 253.476 92.655C252.848 92.1847 251.879 91.8256 250.57 91.5781L245.348 90.5945C242.403 90.0376 240.211 89.0719 238.771 87.6982C237.345 86.3245 236.631 84.5734 236.631 82.4448C236.631 80.6132 237.155 79.0349 238.202 77.7107C239.262 76.3866 240.748 75.3656 242.658 74.6479C244.582 73.9301 246.834 73.571 249.412 73.571Z" fill="#006FBB"/>
<path d="M249.412 73.571C253.221 73.571 256.218 74.3326 258.404 75.8548C260.603 77.3771 261.886 79.4501 262.252 82.0737L254.595 82.5192C254.464 81.9005 254.183 81.3436 253.751 80.8486C253.319 80.3412 252.75 79.9386 252.043 79.6416C251.349 79.3322 250.518 79.1773 249.549 79.1773C248.254 79.1774 247.161 79.4373 246.271 79.957C245.381 80.4644 244.935 81.1454 244.935 81.9992C244.936 82.6799 245.224 83.2553 245.8 83.7256C246.376 84.1958 247.364 84.5735 248.764 84.8581L254.222 85.8974C257.154 86.4667 259.34 87.3826 260.779 88.6449C262.219 89.9072 262.939 91.566 262.939 93.6204C262.939 95.4891 262.356 97.1289 261.191 98.5397C260.04 99.9504 258.456 101.052 256.441 101.844C254.438 102.624 252.128 103.014 249.51 103.014C245.518 103.013 242.337 102.228 239.968 100.656C237.613 99.0718 236.232 96.918 235.826 94.1955L244.052 93.7875C244.301 94.9383 244.903 95.8172 245.858 96.4236C246.814 97.0176 248.038 97.3146 249.53 97.3146C250.995 97.3146 252.174 97.0483 253.064 96.5162C253.967 95.9717 254.425 95.2721 254.438 94.4182C254.424 93.7005 254.104 93.1128 253.476 92.655C252.848 92.1847 251.879 91.8256 250.57 91.5781L245.348 90.5945C242.403 90.0376 240.211 89.0719 238.771 87.6982C237.345 86.3245 236.631 84.5734 236.631 82.4448C236.631 80.6132 237.155 79.0349 238.202 77.7107C239.262 76.3866 240.748 75.3656 242.658 74.6479C244.582 73.9301 246.834 73.571 249.412 73.571Z" fill="url(#paint5_linear_1647_15966)"/>
<path d="M169.026 73.9427H174.699V79.8831H169.026V93.6943C169.026 94.4244 169.144 94.9941 169.379 95.4025C169.615 95.7984 169.942 96.0769 170.361 96.2378C170.792 96.3986 171.29 96.4793 171.853 96.4793C172.245 96.4793 172.638 96.4479 173.03 96.3861C173.423 96.3118 173.724 96.2561 173.934 96.219L175.249 102.104C174.83 102.227 174.241 102.37 173.482 102.531C172.723 102.704 171.8 102.809 170.714 102.846C168.698 102.921 166.931 102.667 165.413 102.086C163.908 101.504 162.736 100.6 161.899 99.375C161.061 98.1499 160.649 96.6029 160.662 94.7342V79.8831H156.539V73.9427H160.662V67.1113H169.026V73.9427Z" fill="#006FBB"/>
<path d="M169.026 73.9427H174.699V79.8831H169.026V93.6943C169.026 94.4244 169.144 94.9941 169.379 95.4025C169.615 95.7984 169.942 96.0769 170.361 96.2378C170.792 96.3986 171.29 96.4793 171.853 96.4793C172.245 96.4793 172.638 96.4479 173.03 96.3861C173.423 96.3118 173.724 96.2561 173.934 96.219L175.249 102.104C174.83 102.227 174.241 102.37 173.482 102.531C172.723 102.704 171.8 102.809 170.714 102.846C168.698 102.921 166.931 102.667 165.413 102.086C163.908 101.504 162.736 100.6 161.899 99.375C161.061 98.1499 160.649 96.6029 160.662 94.7342V79.8831H156.539V73.9427H160.662V67.1113H169.026V73.9427Z" fill="url(#paint6_linear_1647_15966)"/>
<path d="M278.572 73.9427H284.246V79.8831H278.572V93.6943C278.572 94.4244 278.689 94.9941 278.925 95.4025C279.161 95.7983 279.488 96.0769 279.906 96.2378C280.338 96.3986 280.836 96.4793 281.399 96.4793C281.791 96.4793 282.184 96.4479 282.577 96.3861C282.969 96.3119 283.27 96.2561 283.48 96.219L284.795 102.104C284.376 102.227 283.787 102.37 283.028 102.531C282.269 102.704 281.346 102.809 280.26 102.846C278.244 102.921 276.477 102.667 274.959 102.086C273.454 101.504 272.282 100.6 271.445 99.375C270.607 98.1499 270.195 96.6028 270.208 94.7342V79.8831H266.085V73.9427H270.208V67.1113H278.572V73.9427Z" fill="#006FBB"/>
<path d="M278.572 73.9427H284.246V79.8831H278.572V93.6943C278.572 94.4244 278.689 94.9941 278.925 95.4025C279.161 95.7983 279.488 96.0769 279.906 96.2378C280.338 96.3986 280.836 96.4793 281.399 96.4793C281.791 96.4793 282.184 96.4479 282.577 96.3861C282.969 96.3119 283.27 96.2561 283.48 96.219L284.795 102.104C284.376 102.227 283.787 102.37 283.028 102.531C282.269 102.704 281.346 102.809 280.26 102.846C278.244 102.921 276.477 102.667 274.959 102.086C273.454 101.504 272.282 100.6 271.445 99.375C270.607 98.1499 270.195 96.6028 270.208 94.7342V79.8831H266.085V73.9427H270.208V67.1113H278.572V73.9427Z" fill="url(#paint7_linear_1647_15966)"/>
<path d="M211.133 90.6871C211.146 92.3702 211.624 93.7008 212.566 94.6785C213.509 95.656 214.772 96.1451 216.355 96.1452C217.363 96.1452 218.306 95.9281 219.182 95.4951C220.059 95.0495 220.766 94.3934 221.303 93.5272C221.853 92.661 222.121 91.5905 222.108 90.3161V73.9427H230.471V102.457H222.442V97.2771H222.127C221.446 98.9478 220.314 100.291 218.731 101.306C217.16 102.321 215.243 102.828 212.978 102.828C210.963 102.828 209.189 102.395 207.658 101.529C206.127 100.662 204.929 99.4309 204.065 97.8346C203.214 96.2381 202.782 94.3257 202.769 92.0981V73.9427H211.133V90.6871Z" fill="#006FBB"/>
<path d="M211.133 90.6871C211.146 92.3702 211.624 93.7008 212.566 94.6785C213.509 95.656 214.772 96.1451 216.355 96.1452C217.363 96.1452 218.306 95.9281 219.182 95.4951C220.059 95.0495 220.766 94.3934 221.303 93.5272C221.853 92.661 222.121 91.5905 222.108 90.3161V73.9427H230.471V102.457H222.442V97.2771H222.127C221.446 98.9478 220.314 100.291 218.731 101.306C217.16 102.321 215.243 102.828 212.978 102.828C210.963 102.828 209.189 102.395 207.658 101.529C206.127 100.662 204.929 99.4309 204.065 97.8346C203.214 96.2381 202.782 94.3257 202.769 92.0981V73.9427H211.133V90.6871Z" fill="url(#paint8_linear_1647_15966)"/>
<path d="M195.814 73.5341C196.233 73.5341 196.685 73.5591 197.169 73.6086C197.653 73.658 198.079 73.726 198.445 73.8125V80.8298C198.052 80.7185 197.509 80.6192 196.816 80.5326C196.122 80.446 195.487 80.4025 194.911 80.4025C193.681 80.4025 192.582 80.6566 191.613 81.1639C190.658 81.659 189.898 82.3521 189.335 83.2431C188.786 84.1341 188.511 85.1615 188.511 86.3247V102.457H180.148V73.9427H188.256V78.9177H188.57C189.119 77.148 190.043 75.811 191.338 74.9075C192.634 73.9919 194.126 73.5342 195.814 73.5341Z" fill="#006FBB"/>
<path d="M195.814 73.5341C196.233 73.5341 196.685 73.5591 197.169 73.6086C197.653 73.658 198.079 73.726 198.445 73.8125V80.8298C198.052 80.7185 197.509 80.6192 196.816 80.5326C196.122 80.446 195.487 80.4025 194.911 80.4025C193.681 80.4025 192.582 80.6566 191.613 81.1639C190.658 81.659 189.898 82.3521 189.335 83.2431C188.786 84.1341 188.511 85.1615 188.511 86.3247V102.457H180.148V73.9427H188.256V78.9177H188.57C189.119 77.148 190.043 75.811 191.338 74.9075C192.634 73.9919 194.126 73.5342 195.814 73.5341Z" fill="url(#paint9_linear_1647_15966)"/>
<path d="M97.3733 61C98.6341 61 99.7094 61.4233 100.599 62.2696C101.501 63.1025 101.952 64.1007 101.952 65.2642C101.952 66.4409 101.501 67.4526 100.599 68.2988C99.7095 69.1318 98.634 69.5484 97.3733 69.5484C96.1127 69.5483 95.0309 69.1318 94.1286 68.2988C93.2395 67.4526 92.7949 66.4409 92.7949 65.2642C92.795 64.1008 93.2396 63.1025 94.1286 62.2696C95.0309 61.4234 96.1127 61.0001 97.3733 61Z" fill="#006FBB"/>
<path d="M97.3733 61C98.6341 61 99.7094 61.4233 100.599 62.2696C101.501 63.1025 101.952 64.1007 101.952 65.2642C101.952 66.4409 101.501 67.4526 100.599 68.2988C99.7095 69.1318 98.634 69.5484 97.3733 69.5484C96.1127 69.5483 95.0309 69.1318 94.1286 68.2988C93.2395 67.4526 92.7949 66.4409 92.7949 65.2642C92.795 64.1008 93.2396 63.1025 94.1286 62.2696C95.0309 61.4234 96.1127 61.0001 97.3733 61Z" fill="url(#paint10_linear_1647_15966)"/>
<path d="M148.12 61C149.381 61 150.456 61.4233 151.345 62.2696C152.248 63.1025 152.699 64.1007 152.699 65.2642C152.699 66.4409 152.248 67.4526 151.345 68.2988C150.456 69.1318 149.381 69.5484 148.12 69.5484C146.86 69.5483 145.778 69.1318 144.875 68.2988C143.986 67.4526 143.542 66.4409 143.542 65.2642C143.542 64.1008 143.987 63.1025 144.875 62.2696C145.778 61.4234 146.86 61.0001 148.12 61Z" fill="#006FBB"/>
<path d="M148.12 61C149.381 61 150.456 61.4233 151.345 62.2696C152.248 63.1025 152.699 64.1007 152.699 65.2642C152.699 66.4409 152.248 67.4526 151.345 68.2988C150.456 69.1318 149.381 69.5484 148.12 69.5484C146.86 69.5483 145.778 69.1318 144.875 68.2988C143.986 67.4526 143.542 66.4409 143.542 65.2642C143.542 64.1008 143.987 63.1025 144.875 62.2696C145.778 61.4234 146.86 61.0001 148.12 61Z" fill="url(#paint11_linear_1647_15966)"/>
</g>
<defs>
<filter id="filter0_d_1647_15966" x="0" y="2.02161" width="91.1804" height="133.811" filterUnits="userSpaceOnUse" color-interpolation-filters="sRGB">
<feFlood flood-opacity="0" result="BackgroundImageFix"/>
<feColorMatrix in="SourceAlpha" type="matrix" values="0 0 0 0 0 0 0 0 0 0 0 0 0 0 0 0 0 0 127 0" result="hardAlpha"/>
<feOffset dy="4"/>
<feGaussianBlur stdDeviation="2"/>
<feComposite in2="hardAlpha" operator="out"/>
<feColorMatrix type="matrix" values="0 0 0 0 0 0 0 0 0 0 0 0 0 0 0 0 0 0 0.25 0"/>
<feBlend mode="normal" in2="BackgroundImageFix" result="effect1_dropShadow_1647_15966"/>
<feBlend mode="normal" in="SourceGraphic" in2="effect1_dropShadow_1647_15966" result="shape"/>
</filter>
<filter id="filter1_d_1647_15966" x="88.7949" y="0" width="202" height="137" filterUnits="userSpaceOnUse" color-interpolation-filters="sRGB">
<feFlood flood-opacity="0" result="BackgroundImageFix"/>
<feColorMatrix in="SourceAlpha" type="matrix" values="0 0 0 0 0 0 0 0 0 0 0 0 0 0 0 0 0 0 127 0" result="hardAlpha"/>
<feOffset dy="4"/>
<feGaussianBlur stdDeviation="2"/>
<feComposite in2="hardAlpha" operator="out"/>
<feColorMatrix type="matrix" values="0 0 0 0 0 0 0 0 0 0 0 0 0 0 0 0 0 0 0.25 0"/>
<feBlend mode="normal" in2="BackgroundImageFix" result="effect1_dropShadow_1647_15966"/>
<feBlend mode="normal" in="SourceGraphic" in2="effect1_dropShadow_1647_15966" result="shape"/>
</filter>
<linearGradient id="paint0_linear_1647_15966" x1="-14.7051" y1="128" x2="107.805" y2="74.0224" gradientUnits="userSpaceOnUse">
<stop offset="0.24496" stop-color="#0E397D"/>
<stop offset="0.581731" stop-color="#067AB1"/>
<stop offset="0.840045" stop-color="#0A9DC8"/>
</linearGradient>
<linearGradient id="paint1_linear_1647_15966" x1="-14.7051" y1="128" x2="107.805" y2="74.0224" gradientUnits="userSpaceOnUse">
<stop offset="0.24496" stop-color="#0E397D"/>
<stop offset="0.581731" stop-color="#067AB1"/>
<stop offset="0.840045" stop-color="#0A9DC8"/>
</linearGradient>
<linearGradient id="paint2_linear_1647_15966" x1="26.0853" y1="112.524" x2="75.6428" y2="17.7077" gradientUnits="userSpaceOnUse">
<stop offset="0.0157729" stop-color="#0E397D"/>
<stop offset="0.439698" stop-color="#067AB1"/>
<stop offset="0.840045" stop-color="#0A9DC8"/>
</linearGradient>
<linearGradient id="paint3_linear_1647_15966" x1="26.0853" y1="112.524" x2="75.6428" y2="17.7077" gradientUnits="userSpaceOnUse">
<stop offset="0.0157729" stop-color="#0E397D"/>
<stop offset="0.439698" stop-color="#067AB1"/>
<stop offset="0.840045" stop-color="#0A9DC8"/>
</linearGradient>
<linearGradient id="paint4_linear_1647_15966" x1="26.0853" y1="112.524" x2="75.6428" y2="17.7077" gradientUnits="userSpaceOnUse">
<stop offset="0.0157729" stop-color="#0E397D"/>
<stop offset="0.439698" stop-color="#067AB1"/>
<stop offset="0.840045" stop-color="#0A9DC8"/>
</linearGradient>
<linearGradient id="paint5_linear_1647_15966" x1="26.0853" y1="112.524" x2="75.6428" y2="17.7077" gradientUnits="userSpaceOnUse">
<stop offset="0.0157729" stop-color="#0E397D"/>
<stop offset="0.439698" stop-color="#067AB1"/>
<stop offset="0.840045" stop-color="#0A9DC8"/>
</linearGradient>
<linearGradient id="paint6_linear_1647_15966" x1="26.0853" y1="112.524" x2="75.6428" y2="17.7077" gradientUnits="userSpaceOnUse">
<stop offset="0.0157729" stop-color="#0E397D"/>
<stop offset="0.439698" stop-color="#067AB1"/>
<stop offset="0.840045" stop-color="#0A9DC8"/>
</linearGradient>
<linearGradient id="paint7_linear_1647_15966" x1="26.0853" y1="112.524" x2="75.6428" y2="17.7077" gradientUnits="userSpaceOnUse">
<stop offset="0.0157729" stop-color="#0E397D"/>
<stop offset="0.439698" stop-color="#067AB1"/>
<stop offset="0.840045" stop-color="#0A9DC8"/>
</linearGradient>
<linearGradient id="paint8_linear_1647_15966" x1="26.0853" y1="112.524" x2="75.6428" y2="17.7077" gradientUnits="userSpaceOnUse">
<stop offset="0.0157729" stop-color="#0E397D"/>
<stop offset="0.439698" stop-color="#067AB1"/>
<stop offset="0.840045" stop-color="#0A9DC8"/>
</linearGradient>
<linearGradient id="paint9_linear_1647_15966" x1="26.0853" y1="112.524" x2="75.6428" y2="17.7077" gradientUnits="userSpaceOnUse">
<stop offset="0.0157729" stop-color="#0E397D"/>
<stop offset="0.439698" stop-color="#067AB1"/>
<stop offset="0.840045" stop-color="#0A9DC8"/>
</linearGradient>
<linearGradient id="paint10_linear_1647_15966" x1="26.0853" y1="112.524" x2="75.6428" y2="17.7077" gradientUnits="userSpaceOnUse">
<stop offset="0.0157729" stop-color="#0E397D"/>
<stop offset="0.439698" stop-color="#067AB1"/>
<stop offset="0.840045" stop-color="#0A9DC8"/>
</linearGradient>
<linearGradient id="paint11_linear_1647_15966" x1="26.0853" y1="112.524" x2="75.6428" y2="17.7077" gradientUnits="userSpaceOnUse">
<stop offset="0.0157729" stop-color="#0E397D"/>
<stop offset="0.439698" stop-color="#067AB1"/>
<stop offset="0.840045" stop-color="#0A9DC8"/>
</linearGradient>
</defs>
</svg>
